HIERARCHY
ROOT Hips
{
	OFFSET 0.000000 0.000000 0.000000
	CHANNELS 6 Xposition Yposition Zposition Zrotation Yrotation Xrotation 
	JOINT LHipJoint
	{
		OFFSET 0.000000 0.000000 0.000000
		CHANNELS 3 Zrotation Yrotation Xrotation
		JOINT LeftUpLeg
		{
			OFFSET 1.363060 -1.794630 0.839290
			CHANNELS 3 Zrotation Yrotation Xrotation
			JOINT LeftLeg
			{
				OFFSET 2.448110 -6.726130 0.000000
				CHANNELS 3 Zrotation Yrotation Xrotation
				JOINT LeftFoot
				{
					OFFSET 2.562200 -7.039590 0.000000
					CHANNELS 3 Zrotation Yrotation Xrotation
					JOINT LeftToeBase
					{
						OFFSET 0.157640 -0.433110 2.322550
						CHANNELS 3 Zrotation Yrotation Xrotation
						End Site
						{
							OFFSET 0.000000 0.000000 0.000000
						}
					}
				}
			}
		}
	}
	JOINT RHipJoint
	{
		OFFSET 0.000000 0.000000 0.000000
		CHANNELS 3 Zrotation Yrotation Xrotation
		JOINT RightUpLeg
		{
			OFFSET -1.305520 -1.794630 0.839290
			CHANNELS 3 Zrotation Yrotation Xrotation
			JOINT RightLeg
			{
				OFFSET -2.542530 -6.985550 0.000000
				CHANNELS 3 Zrotation Yrotation Xrotation
				JOINT RightFoot
				{
					OFFSET -2.568260 -7.056230 0.000000
					CHANNELS 3 Zrotation Yrotation Xrotation
					JOINT RightToeBase
					{
						OFFSET -0.164730 -0.452590 2.363150
						CHANNELS 3 Zrotation Yrotation Xrotation
						End Site
						{
							OFFSET 0.000000 0.000000 0.000000
						}
					}
				}
			}
		}
	}
	JOINT LowerBack
	{
		OFFSET 0.000000 0.000000 0.000000
		CHANNELS 3 Zrotation Yrotation Xrotation
		JOINT Spine
		{
			OFFSET 0.028270 2.035590 -0.193380
			CHANNELS 3 Zrotation Yrotation Xrotation
			JOINT Spine1
			{
				OFFSET 0.056720 2.048850 -0.042750
				CHANNELS 3 Zrotation Yrotation Xrotation
				JOINT Neck
				{
					OFFSET 0.000000 0.000000 0.000000
					CHANNELS 3 Zrotation Yrotation Xrotation
					JOINT Neck1
					{
						OFFSET -0.054170 1.746240 0.172020
						CHANNELS 3 Zrotation Yrotation Xrotation
						JOINT Head
						{
							OFFSET 0.104070 1.761360 -0.123970
							CHANNELS 3 Zrotation Yrotation Xrotation
							End Site
							{
								OFFSET 0.000000 0.000000 0.000000
							}
						}
					}
				}
				JOINT LeftShoulder
				{
					OFFSET 0.000000 0.000000 0.000000
					CHANNELS 3 Zrotation Yrotation Xrotation
					JOINT LeftArm
					{
						OFFSET 3.362410 1.200890 -0.311210
						CHANNELS 3 Zrotation Yrotation Xrotation
						JOINT LeftForeArm
						{
							OFFSET 4.983000 -0.000000 -0.000000
							CHANNELS 3 Zrotation Yrotation Xrotation
							JOINT LeftHand
							{
								OFFSET 3.483560 -0.000000 -0.000000
								CHANNELS 3 Zrotation Yrotation Xrotation
								JOINT LeftFingerBase
								{
									OFFSET 0.000000 0.000000 0.000000
									CHANNELS 3 Zrotation Yrotation Xrotation
									JOINT LeftHandIndex1
									{
										OFFSET 0.715260 -0.000000 -0.000000
										CHANNELS 3 Zrotation Yrotation Xrotation
										End Site
										{
											OFFSET 0.000000 0.000000 0.000000
										}
									}
								}
								JOINT LThumb
								{
									OFFSET 0.000000 0.000000 0.000000
									CHANNELS 3 Zrotation Yrotation Xrotation
									End Site
									{
										OFFSET 0.000000 0.000000 0.000000
									}
								}
							}
						}
					}
				}
				JOINT RightShoulder
				{
					OFFSET 0.000000 0.000000 0.000000
					CHANNELS 3 Zrotation Yrotation Xrotation
					JOINT RightArm
					{
						OFFSET -3.136600 1.374050 -0.404650
						CHANNELS 3 Zrotation Yrotation Xrotation
						JOINT RightForeArm
						{
							OFFSET -5.241900 -0.000000 -0.000000
							CHANNELS 3 Zrotation Yrotation Xrotation
							JOINT RightHand
							{
								OFFSET -3.444170 -0.000000 -0.000000
								CHANNELS 3 Zrotation Yrotation Xrotation
								JOINT RightFingerBase
								{
									OFFSET 0.000000 0.000000 0.000000
									CHANNELS 3 Zrotation Yrotation Xrotation
									JOINT RightHandIndex1
									{
										OFFSET -0.622530 -0.000000 -0.000000
										CHANNELS 3 Zrotation Yrotation Xrotation
										End Site
										{
											OFFSET 0.000000 0.000000 0.000000
										}
									}
								}
								JOINT RThumb
								{
									OFFSET 0.000000 0.000000 0.000000
									CHANNELS 3 Zrotation Yrotation Xrotation
									End Site
									{
										OFFSET 0.000000 0.000000 0.000000
									}
								}
							}
						}
					}
				}
			}
		}
	}
}
MOTION
Frames: 8
Frame Time: 0.008333
3.889895 14.162568 33.357808 91.254359 -76.359327 -90.443165 -16.448845 -16.192990 -7.511922 8.954021 14.778033 -19.876001 -3.182527 16.492545 58.085421 -3.618499 -18.872416 -31.334755 -13.238149 -27.130799 -0.013926 -11.277285 -3.608858 -5.325109 9.913495 -0.018471 -45.720739 -26.302844 -24.802974 87.054855 -14.472213 -12.402483 -11.126477 -5.171152 9.250314 3.176328 23.182550 0.403673 14.004909 -2.541085 0.823147 -5.013833 -11.435791 -1.056946 16.987576 -0.548317 -0.838541 -21.721126 3.802914 -1.049687 12.294206 11.152039 -3.136757 3.217806 14.214334 8.866874 4.311695 -87.042968 -49.278089 19.248423 15.831544 -68.381429 30.851815 -2.605843 -35.890214 6.083010 0.000002 -0.000001 0.000002 -0.000000 -0.000000 0.000000 0.000000 0.000000 -0.000000 -14.071563 -4.503785 2.657749 77.111168 32.858294 40.186264 -60.049572 67.789733 57.317910 -91.814214 -11.326979 7.283115 -0.000005 0.000004 -0.000002 -0.000000 -0.000000 0.000000 -0.000000 -0.000000 -0.000000 
3.858919 14.215856 33.367267 95.040111 -76.222211 -94.094010 -17.124571 -17.644022 -7.690719 10.256804 16.423002 -18.300272 -3.230024 16.743298 56.936921 -3.821701 -19.049695 -30.895208 -13.467406 -28.329809 1.958766 -11.355583 -3.583761 -5.419069 9.394732 -0.142465 -45.578712 -25.287692 -24.836373 86.503887 -13.928910 -11.127977 -10.944988 -3.726573 8.893748 0.426483 23.185222 0.733798 14.213083 -2.546124 0.648021 -5.114212 -10.814650 -1.435930 16.208016 -1.081703 -0.848110 -21.124022 3.733465 -0.978482 12.323950 11.265877 -3.187678 3.626439 14.110637 7.707367 4.381055 -86.795382 -50.367445 18.278889 15.722560 -68.901950 30.647000 -3.262036 -35.587195 6.253944 0.000002 -0.000001 0.000002 -0.000000 -0.000000 0.000000 0.000000 -0.000000 0.000000 -14.379660 -4.938230 3.028767 75.856722 31.242434 38.528509 -56.472180 68.403331 63.153281 -96.201603 -13.408996 9.669009 -0.000005 0.000004 -0.000002 -0.000000 0.000000 -0.000000 0.000000 -0.000000 0.000000 
3.831036 14.275330 33.366066 98.887391 -75.945700 -97.725601 -17.706169 -18.814031 -7.791108 11.414991 17.468225 -16.823450 -3.762853 17.037447 55.639739 -3.413795 -18.441377 -30.696988 -13.049728 -27.761803 2.333544 -11.320644 -3.387610 -5.590806 8.715677 -0.390629 -45.479148 -23.200737 -24.767440 85.811698 -13.983305 -10.897405 -10.656282 -2.076741 9.106233 -3.169496 23.028364 0.927200 14.430538 -2.535190 0.212199 -5.260937 -10.157215 -1.904847 15.836579 -1.628846 -0.872797 -21.030021 3.647751 -0.898439 12.347468 11.539910 -3.187315 3.796391 13.515911 7.306594 4.691897 -86.163543 -52.196175 17.213742 15.374173 -69.320688 30.816611 -3.530561 -35.385056 6.308289 0.000002 -0.000001 0.000002 -0.000000 -0.000000 0.000000 -0.000000 -0.000000 0.000000 -14.548483 -5.067419 3.136442 74.421857 30.159606 37.026567 -52.525687 68.715035 68.269832 -99.531399 -14.715150 11.408258 -0.000005 0.000004 -0.000002 -0.000000 0.000000 0.000000 0.000000 0.000000 0.000000 
3.792207 14.328994 33.349399 102.184743 -75.455633 -100.838315 -17.855475 -19.112484 -7.785168 11.459969 17.728156 -15.964010 -3.823630 17.360866 54.501311 -3.335404 -18.162043 -30.390887 -12.674879 -27.218460 2.552486 -11.306700 -3.413338 -5.656490 8.226282 -0.665748 -45.609450 -24.185238 -24.473515 85.472305 -13.031842 -7.806110 -10.356517 0.593139 6.196521 -5.889158 22.506542 1.113469 14.500099 -2.483062 -0.318068 -5.382547 -9.676928 -2.175120 15.350246 -1.870463 -0.873278 -20.757260 3.576579 -0.843342 12.399580 11.580955 -2.959016 3.707320 13.132029 6.669573 4.847037 -84.920320 -53.722558 15.761065 15.097087 -69.595470 31.369679 -3.405268 -35.868111 6.355814 0.000002 -0.000001 0.000002 -0.000000 -0.000000 0.000000 0.000000 0.000000 0.000000 -14.343424 -4.638756 2.478275 72.888517 28.061369 38.757561 -53.749324 66.225447 61.593471 -97.646427 -13.975176 10.435802 -0.000005 0.000004 -0.000002 0.000000 0.000000 0.000000 0.000000 0.000000 -0.000000 
3.733303 14.391426 33.340541 106.607343 -74.608501 -104.921282 -17.977562 -20.284409 -8.029392 11.525708 19.244075 -14.556980 -3.451092 17.754348 52.812166 -3.510954 -18.231655 -30.202739 -12.165410 -26.320760 2.444726 -11.819765 -3.370796 -5.903673 8.049604 -0.609294 -45.460976 -25.463526 -24.417358 84.812384 -12.740272 -5.870695 -10.630017 2.497089 2.913446 -6.680815 21.843308 1.221630 14.667053 -2.473144 -0.733033 -5.484088 -9.647847 -2.335510 14.903448 -1.822327 -0.959528 -20.525147 3.640020 -0.924310 12.287798 10.956775 -2.989117 3.921774 13.255396 6.534519 5.148025 -84.997854 -55.308954 15.299751 15.330572 -70.096214 31.540660 -3.699431 -36.521585 6.580719 0.000002 -0.000001 0.000002 0.000000 -0.000000 0.000000 0.000000 0.000000 0.000000 -14.461107 -4.129923 1.797615 72.246070 26.037121 40.894785 -57.513723 65.355138 52.388208 -95.045258 -12.920276 9.036405 -0.000005 0.000004 -0.000002 -0.000000 -0.000000 0.000000 -0.000000 0.000000 0.000000 
3.675676 14.459159 33.329730 111.311915 -73.631954 -109.309233 -18.100237 -21.560093 -8.350392 11.779498 20.962291 -12.871585 -3.345846 18.076297 50.892741 -3.660813 -17.987282 -30.047582 -11.446620 -25.275749 2.873885 -12.300732 -3.051367 -6.201101 7.699554 -0.470622 -45.153125 -24.090841 -24.416326 83.838720 -13.695957 -6.770400 -11.107482 1.951233 3.755594 -6.358060 21.205709 1.411642 15.037304 -2.482890 -1.090952 -5.602725 -9.938527 -2.434514 14.766584 -1.488198 -0.997319 -20.624366 3.750922 -1.011019 12.146315 10.549892 -3.057153 4.599139 13.585225 6.366087 4.875648 -84.877374 -56.734715 14.667183 15.491506 -70.528807 31.393483 -3.548267 -36.433468 6.511303 0.000002 -0.000001 0.000002 -0.000000 0.000000 -0.000000 -0.000000 -0.000000 0.000000 -14.148373 -4.184961 1.811039 71.590518 25.242311 40.356893 -58.007582 67.115481 51.241851 -95.454037 -12.972520 9.156835 -0.000005 0.000004 -0.000002 -0.000000 0.000000 -0.000000 0.000000 -0.000000 0.000000 
3.629670 14.524670 33.301502 115.709067 -72.531605 -113.641785 -17.854714 -22.390812 -8.771852 11.699442 21.893760 -10.811758 -4.370845 18.020454 48.741556 -2.393678 -15.931131 -30.554263 -13.709782 -28.522028 1.287763 -12.470618 -2.584306 -6.550524 7.265680 -0.508587 -44.721421 -23.622142 -24.178933 82.952515 -13.992610 -6.853703 -11.614898 1.724495 5.514771 -7.423984 20.368230 1.671430 15.808469 -2.481789 -1.272126 -5.751596 -9.638022 -2.600343 14.413531 -1.641524 -0.984443 -20.569830 3.916452 -0.976913 12.026181 10.955116 -3.002323 4.500099 13.402521 5.662673 4.348868 -84.032796 -57.946599 13.664439 15.936452 -70.748459 31.274540 -3.577857 -36.319805 6.499913 0.000002 -0.000001 0.000002 0.000000 0.000000 0.000000 -0.000000 0.000000 0.000000 -14.093337 -4.453360 1.952000 70.829727 24.488406 39.052481 -56.956162 69.421454 51.199970 -95.498669 -12.895349 9.099275 -0.000005 0.000004 -0.000002 0.000000 -0.000000 0.000000 -0.000000 -0.000000 -0.000000 
3.600616 14.582883 33.257508 118.656630 -71.442446 -116.619292 -16.946827 -22.960991 -9.405148 10.561074 22.571768 -9.039621 -4.553009 18.150645 46.630501 -2.089647 -14.776317 -30.393846 -14.372626 -29.365969 0.597321 -12.638475 -2.000777 -6.880164 6.676864 -0.796294 -44.256260 -23.383860 -24.099039 82.163498 -13.956040 -6.790727 -12.193430 2.134212 6.576360 -9.103363 19.263735 1.941958 16.689084 -2.434610 -1.367134 -5.934734 -9.077450 -2.677753 13.460232 -1.884816 -0.997071 -19.955980 4.125267 -0.958194 11.911013 11.230189 -2.812273 3.872951 13.224707 4.295367 4.282538 -82.546574 -59.280765 12.478796 17.023263 -70.742142 30.812363 -3.136866 -36.266116 6.336031 0.000002 -0.000001 0.000002 -0.000000 0.000000 -0.000000 -0.000000 -0.000000 0.000000 -14.040585 -4.665429 2.142705 69.985978 23.088513 38.707099 -57.620568 70.775050 49.767014 -96.224076 -12.960526 9.274813 -0.000005 0.000004 -0.000002 -0.000000 0.000000 -0.000000 -0.000000 0.000000 -0.000000 
